<svg version="1.2" xmlns="http://www.w3.org/2000/svg" viewBox="0 0 1200 1200" width="1200" height="1200">
	<style>
		.s0 { fill: #000000 } 
		.s1 { fill: #f5c242;stroke: #000000;stroke-miterlimit:100;stroke-width: 11 } 
		.s2 { fill: #f5c242 } 
	</style>
	<path id="Layer 1" fill-rule="evenodd" class="s0" d="m1050 312v624h-863v-624z"/>
	<path class="s1" d="m1177.51 557.76q-14.27-65.47-22.2-93.24-7.12-27.72-35.52-97.67-28.28-70.1-65.71-121.65-36.63-50.54-179.37-139.41-141.99-88.85-242.4-88.79-100.35 0-212.23 51.49-111.88 50.62-176.71 108.34-65.64 56.89-124.31 141.18-57.9 85.06-78.14 160.73-19.34 76.54-17.76 159.83 1.67 84.31 18.65 142.08 17.05 57.68 55.06 119.87 38.74 63.03 69.26 104.78 31.46 42.73 105.67 104.78 74.25 62.83 289.47 79.92 91.47-2.67 186.48-21.32 87.9-19.53 152.73-49.72 61.28-29.41 114.54-81.69 53.95-52.13 72.81-69.26 19.65-16.21 62.16-125.2 42.71-109.11 42.62-164.28-0.05-54.31-15.1-120.77zm-496.36-23.97q-44.39-52.39-50.62-91.46-9.76 41.73-38.17 86.13-63.05 95.09-150.95 97.68-87.03 2.45-142.08-31.08-55.06-32.65-70.15-79.92-15.1-47.14-15.1-125.2l-0.88-1.78-0.89-11.54q0-17.76 22.19-22.2h781.43q19.53 5.33 19.53 22.2 0 1.78 0.89 7.11 0.89 5.33-0.89 7.98 0.89 2.67 1.77-3.55 1.59 88.72-60.37 162.5-61.13 73.76-143.86 68.37-82.62-4.46-151.85-85.24zm299.26 192.69q5.32 5.33 7.1 11.54 7.11 28.42-31.08 79.92-40.84 56.82-93.23 74.59l-87.03 23.09q-0.88 0-47.94 3.55-24.87 1.77-30.19-16.87-5.33-21.31 18.64-27.53 19.54-5.33 49.72-2.67l83.48-23.08q22.2-11.54 46.17-31.09 24.87-22.2 32.85-35.51 4.45-11.54 13.32-43.51 2.67-13.32 17.77-16.88 11.54-3.54 20.42 4.45zm-422.67-237.1q24.86-47.06 25.76-94.12h-324.11q0.88 11.53 1.77 32.85 0.89 20.42 7.99 57.72 7.99 37.29 20.42 48.83 12.44 11.54 23.09 18.65 10.65 6.22 39.07 14.21 28.41 7.1 53.28 7.1 106.55 0 152.73-85.24zm112.77-79.03q0 7.1 2.66 29.31 3.55 7.1 34.63 51.49 51.5 74.6 150.07 74.6 43.5 0 79.03-43.51 25.75-31.98 36.41-68.39 11.54-39.95 9.76-58.6h-314.33q1.77 1.77 1.77 15.1z"/>
	<path id="Layer 2" fill-rule="evenodd" class="s2" d="m1069.41 371.68c-15.94 3.68-33.32-5.37-37.46-22.49-4.72-19.52 9.99-37.41 30.48-37.41 17.76 0 30.76 13.98 31.08 29.65 0.28 14.13-9.9 26.97-24.1 30.25z"/>
	<path id="Shape 1" fill-rule="evenodd" class="s0" d="m418.84 570.08c-81.33-0.34-161.24-31.33-183.6-79.71-30.34-65.62 51.14-138.2 193.73-137.63 142.64 0.57 217.38 73.8 180.9 139.19-26.88 48.19-109.7 78.49-191.03 78.15z"/>
	<path id="Shape 1 copy" fill-rule="evenodd" class="s0" d="m841.89 577.29c-79.95 0.24-162.81-32.21-188.59-84.2-35.5-71.56 46.08-147.12 188.65-140.66 134.33 6.08 204.41 81.54 174.43 145.91-22.32 47.91-97.2 78.71-174.49 78.95z"/>
</svg>