<svg version="1.2" xmlns="http://www.w3.org/2000/svg" viewBox="0 0 1200 1200" width="1200" height="1200">
	<style>
		.s0 { fill: #000000 } 
		.s1 { fill: #f5c242;stroke: #000000;stroke-miterlimit:100;stroke-width: 11 } 
	</style>
	<path id="Layer 1" fill-rule="evenodd" class="s0" d="m623 1121.36c-276 0-499.09-226.27-499.09-506.18 0-279.92 223.09-506.18 499.09-506.18 276 0 499.09 226.26 499.09 506.18 0 279.91-223.09 506.18-499.09 506.18z"/>
	<path class="s1" d="m1172.65 558.15q-14.15-64.91-22-92.45-7.06-27.48-35.23-96.84-28.04-69.5-65.15-120.61-36.31-50.12-177.84-138.23-140.78-88.09-240.34-88.04-99.49 0-210.42 51.06-110.93 50.19-175.2 107.41-65.08 56.42-123.26 139.98-57.41 84.35-77.47 159.36-19.18 75.9-17.61 158.48 1.66 83.59 18.49 140.87 16.91 57.19 54.59 118.84 38.41 62.51 68.67 103.9 31.2 42.36 104.77 103.89 73.62 62.29 287.01 79.23 90.69-2.64 184.89-21.13 87.16-19.37 151.43-49.3 60.76-29.16 113.57-81 53.49-51.69 72.19-68.67 19.48-16.07 61.63-124.14 42.35-108.17 42.26-162.88-0.06-53.84-14.98-119.73zm-488.61-114.45q0-80.11 58.1-75.72 58.11 3.53 58.12 68.68-11.46 72.19-65.16 72.19-29.93 0-43.13-31.69-7.93-31.7-7.93-33.46zm-330.16 347.75q-9.6-2.85-18.5-12.32-8.79-8.68-9.68-22.02-1.21-13.37 15.84-6.16 18.06 7.27 44.91 9.68h473.67q9.77 1.11 28.18-6.16 18.41-7.21 29.93-10.56 11.52-3.52 11.44 9.68 0.68 14.19-14.96 27.3-15.6 13.92-26.41 16.72h-84.53q2.65 7.88 2.65 18.49 0 29.94-25.54 75.71-36.98 64.28-95.96 64.28-57.23 0-84.52-63.39-15.85-64.28-15.85-65.15 0-22.01 0.88-25.53 0.53-2.35 0.89-4.41h-215.7q-0.92 0-3.52-1.76-2.67-0.78-13.22-4.4zm111.82-423.48q58.11 3.53 58.11 68.68-11.45 72.19-65.15 72.19-29.94 0-43.14-31.69-7.93-31.7-7.93-33.46 0-80.11 58.11-75.72zm159.35 429.63l0.88 7.05-0.88 25.53q0 29.05 10.57 52.82 15.85 33.45 44.9 29.06 42.25-6.17 65.15-47.54 16.72-30.83 16.73-61.64 0.88 1.77 0.88-5.27h-62.51q0.88 1.75 0.88 26.41 0 41.38-18.49 24.64-12.33-11.44-14.97-18.48v-7.93q-5.28-18.49-2.63-24.64z"/>
</svg>